<svg width="20" height="17" viewBox="0 0 20 17" fill="none" xmlns="http://www.w3.org/2000/svg">
    <path d="M1.11111 9.70156C1.72476 9.70156 2.22222 9.13644 2.22222 8.43932C2.22222 7.74221 1.72476 7.17709 1.11111 7.17709C0.497461 7.17709 0 7.74221 0 8.43932C0 9.13644 0.497461 9.70156 1.11111 9.70156Z" fill="#F29400"/>
    <path d="M18.9556 7.17709H5.4889C4.91207 7.17709 4.44446 7.70831 4.44446 8.36359V8.51506C4.44446 9.17034 4.91207 9.70156 5.4889 9.70156H18.9556C19.5324 9.70156 20 9.17034 20 8.51506V8.36359C20 7.70831 19.5324 7.17709 18.9556 7.17709Z" fill="#F29400"/>
    <path d="M18.9556 13.4883H1.04444C0.467614 13.4883 0 14.0195 0 14.6747V14.8262C0 15.4815 0.467614 16.0127 1.04444 16.0127H18.9556C19.5324 16.0127 20 15.4815 20 14.8262V14.6747C20 14.0195 19.5324 13.4883 18.9556 13.4883Z" fill="#F29400"/>
    <path d="M18.9556 0.865936H1.04444C0.467614 0.865936 0 1.39715 0 2.05243V2.2039C0 2.85919 0.467614 3.3904 1.04444 3.3904H18.9556C19.5324 3.3904 20 2.85919 20 2.2039V2.05243C20 1.39715 19.5324 0.865936 18.9556 0.865936Z" fill="#F29400"/>
</svg>
